# xmcd CD database file
#
# Track frame offsets:
#	150
#	13625
#	27027
#	37157
#	56732
#	70230
#	85190
#	98300
#	109787
#	122457
#	137062
#	147112
#	159300
#	169602
#	180712
#	192890
#	216760
#	227997
#	239242
#	251432
#
# Disc length: 3561 seconds
#
# Revision: 2
# Processed by: cddbd v1.5.2PL0 Copyright (c) Steve Scherf et al.
# Submitted via: jetAudio 7
#
DISCID=0e0de714
DTITLE=Various Artist - Country Moods And Memories Disc 1
DYEAR=1900
DGENRE=Country
TTITLE0=Gentle On My Mind
TTITLE1=If I Were A Carpenter
TTITLE2=I Can't Stop Loving You
TTITLE3=Turn! Turn! Turn!
TTITLE4=Don't Think Twice, It's Alright
TTITLE5=Something
TTITLE6=Yesterday
TTITLE7=King Of The Road
TTITLE8=In The Misty Moonlight
TTITLE9=Harper Valley P.T.A.
TTITLE10=Funny, Familiar, Forgotten Feelings
TTITLE11=Maria Elena
TTITLE12=Busted
TTITLE13=Husbands And Wives
TTITLE14=Homeward Bound
TTITLE15=Me And Bobby McGee
TTITLE16=Little Green Apples
TTITLE17=What A Wonderful World
TTITLE18=Leaving On A Jet Plane
TTITLE19=Detroit City
EXTD=
EXTT0=
EXTT1=
EXTT2=
EXTT3=
EXTT4=
EXTT5=
EXTT6=
EXTT7=
EXTT8=
EXTT9=
EXTT10=
EXTT11=
EXTT12=
EXTT13=
EXTT14=
EXTT15=
EXTT16=
EXTT17=
EXTT18=
EXTT19=
PLAYORDER=
